<?xml version="1.0" encoding="iso-8859-1"?>
<!-- Generator: Adobe Illustrator 19.0.0, SVG Export Plug-In . SVG Version: 6.00 Build 0)  -->
<svg version="1.1" id="Capa_1" xmlns="http://www.w3.org/2000/svg" xmlns:xlink="http://www.w3.org/1999/xlink" x="0px" y="0px"
	 viewBox="0 0 511.997 511.997" style="enable-background:new 0 0 511.997 511.997;" xml:space="preserve">
<g>
	<g transform="translate(1 1)">
		<path style="fill:#6A1B9A;" d="M423.69,186.73v290.133c0,14.138-11.462,25.6-25.6,25.6H125.023c-14.138,0-25.6-11.462-25.6-25.6
			V186.73H423.69z"/>
		<path style="fill:#9D27B0;" d="M398.09,186.73v290.133c0,14.138-11.462,25.6-25.6,25.6H125.023c-14.138,0-25.6-11.462-25.6-25.6
			V186.73H398.09z"/>
		<path style="fill:#673AB7;" d="M406.623,135.53h-307.2l-17.067,34.133v42.667c0,4.713,3.821,8.533,8.533,8.533h341.333
			c4.713,0,8.533-3.82,8.533-8.533v-42.667L406.623,135.53z"/>
		<polygon style="fill:#4527A0;" points="440.757,169.663 398.09,169.663 369.674,135.53 406.623,135.53 		"/>
		<g>
			<path style="fill:#673AB7;" d="M176.223,169.663l-59.733,51.2h-25.6c-4.713,0-8.533-3.82-8.533-8.533v-42.667H176.223z"/>
			<polygon style="fill:#673AB7;" points="253.023,169.663 193.29,220.863 116.49,220.863 176.223,169.663 			"/>
			<polygon style="fill:#673AB7;" points="329.823,169.663 270.09,220.863 193.29,220.863 253.023,169.663 			"/>
			<polygon style="fill:#673AB7;" points="406.623,169.663 346.89,220.863 270.09,220.863 329.823,169.663 			"/>
		</g>
		<g>
			<polygon style="fill:#4527A0;" points="184.757,135.53 176.223,169.663 82.357,169.663 99.423,135.53 			"/>
			<polygon style="fill:#4527A0;" points="253.023,135.53 253.023,169.663 176.223,169.663 184.757,135.53 			"/>
			<polygon style="fill:#4527A0;" points="329.823,169.663 253.023,169.663 253.023,135.53 322.997,135.53 			"/>
			<polygon style="fill:#4527A0;" points="406.623,169.663 329.823,169.663 322.997,135.53 369.674,135.53 			"/>
		</g>
		<g>
			<path style="fill:#673AB7;" d="M426.335,68.629l-11.008-41.216L363.957,7.53l-36.975,9.242l-61.5,16.188L212.84,46.467h-0.085
				l-59.622,15.275L99.423,75.797L69.13,120.17l13.227,49.493l32.939-8.875l74.24-19.797l0.085-0.085l74.069-19.797l74.155-19.883
				l82.432-22.101c2.201-0.58,4.079-2.015,5.216-3.986S426.934,70.824,426.335,68.629z M159.754,95.935l74.155-19.968h0.085
				L159.754,95.935z"/>
			<polygon style="fill:#673AB7;" points="159.754,95.935 115.295,160.789 82.357,169.663 69.13,120.17 			"/>
			<polygon style="fill:#673AB7;" points="233.994,75.967 233.994,76.053 189.621,140.906 189.535,140.991 115.295,160.789 
				159.754,95.935 			"/>
			<polygon style="fill:#673AB7;" points="382.303,36.287 337.845,101.226 263.69,121.109 308.149,56.17 			"/>
			<polygon style="fill:#673AB7;" points="308.149,56.17 263.69,121.109 189.621,140.906 233.994,76.053 233.994,75.967 			"/>
		</g>
		<g>
			<polygon style="fill:#4527A0;" points="382.303,36.287 308.149,56.17 265.482,32.959 326.982,16.771 			"/>
			<polygon style="fill:#4527A0;" points="308.149,56.17 233.994,75.967 233.909,75.967 233.909,75.882 212.84,46.467 
				265.482,32.959 			"/>
			<polygon style="fill:#4527A0;" points="233.909,75.882 233.909,75.967 159.754,95.935 153.132,61.742 212.755,46.467 
				212.84,46.467 			"/>
			<polygon style="fill:#4527A0;" points="159.754,95.935 69.13,120.17 99.423,75.797 153.132,61.742 			"/>
			<polygon style="fill:#4527A0;" points="415.327,27.413 382.303,36.287 326.982,16.771 363.957,7.53 			"/>
		</g>
	</g>
	<g>
		<path d="M447.781,164.622l-34.133-34.133c-1.599-1.595-3.766-2.491-6.025-2.492H275.562l147.951-39.646
			c9.098-2.444,14.495-11.798,12.058-20.898l-11.042-41.216c-0.06-0.213-0.213-0.375-0.29-0.58
			c-0.197-0.529-0.446-1.038-0.742-1.519c-0.247-0.453-0.532-0.885-0.853-1.289c-0.382-0.404-0.802-0.77-1.254-1.092
			c-0.246-0.253-0.511-0.487-0.794-0.7c-0.188-0.111-0.418-0.119-0.623-0.213c-0.205-0.094-0.341-0.273-0.555-0.358L368.046,0.568
			c-1.669-0.633-3.491-0.74-5.222-0.307L98.29,68.528c-2.005,0.52-3.751,1.752-4.915,3.465l-30.31,44.373
			c-0.045,0.092-0.085,0.186-0.119,0.282c-0.308,0.539-0.554,1.112-0.734,1.707c-0.196,0.447-0.353,0.909-0.469,1.382
			c-0.047,0.497-0.047,0.997,0,1.493c-0.032,0.611,0.005,1.224,0.111,1.826c0,0.111,0,0.213,0,0.316l12.971,48.41v41.549
			c0,9.426,7.641,17.067,17.067,17.067v247.467c0,18.851,15.282,34.133,34.133,34.133H399.09c18.851,0,34.133-15.282,34.133-34.133
			V230.397c9.426,0,17.067-7.641,17.067-17.067v-42.667c-0.005-1.119-0.229-2.226-0.657-3.26
			C449.207,166.362,448.578,165.416,447.781,164.622z M404.091,145.063l17.067,17.067H148.21l63.693-17.067H404.091z M294.13,213.33
			l39.817-34.133h50.637l-39.817,34.133H294.13z M217.33,213.33l39.817-34.133h50.637l-39.817,34.133H217.33z M140.53,213.33
			l39.817-34.133h50.637l-39.817,34.133H140.53z M100.423,213.33H91.89v-34.133h62.293l-39.817,34.133H100.423z M284.743,107.866
			l29.636-43.281l48.87-13.09l-29.628,43.281L284.743,107.866z M259.416,114.693l-48.836,13.047l29.636-43.264l48.853-13.09
			L259.416,114.693z M185.245,134.567L136.4,147.623l29.628-43.281l48.862-13.09L185.245,134.567z M111.073,154.45l-21.683,5.803
			l-8.832-33.015l60.151-16.119L111.073,154.45z M419.126,71.915l-60.143,16.077l29.636-43.29l21.683-5.803l8.841,32.973
			L419.126,71.915z M105.663,84.255l258.765-66.773l24.422,9.481L90.132,107.005L105.663,84.255z M416.157,477.863
			c0,9.426-7.641,17.067-17.067,17.067H126.023c-9.426,0-17.067-7.641-17.067-17.067V230.397h307.2V477.863z M424.69,213.33h-53.76
			l39.817-34.133h22.477v34.133H424.69z"/>
		<path d="M134.557,247.463c-4.713,0-8.533,3.821-8.533,8.533c0,4.713,3.821,8.533,8.533,8.533h42.667v42.667h-42.667
			c-4.713,0-8.533,3.82-8.533,8.533s3.821,8.533,8.533,8.533h153.6v34.133h-153.6c-4.713,0-8.533,3.82-8.533,8.533
			s3.821,8.533,8.533,8.533h153.6v34.133h-153.6c-4.713,0-8.533,3.821-8.533,8.533s3.821,8.533,8.533,8.533h256
			c4.713,0,8.533-3.82,8.533-8.533s-3.821-8.533-8.533-8.533h-85.333v-85.333h85.333c4.713,0,8.533-3.821,8.533-8.533
			s-3.821-8.533-8.533-8.533H347.89V264.53h42.667c4.713,0,8.533-3.821,8.533-8.533c0-4.713-3.821-8.533-8.533-8.533H134.557z
			 M330.823,307.197H194.29V264.53h136.533V307.197z"/>
		<path d="M390.557,460.797h-256c-4.713,0-8.533,3.82-8.533,8.533s3.821,8.533,8.533,8.533h256c4.713,0,8.533-3.821,8.533-8.533
			S395.27,460.797,390.557,460.797z"/>
	</g>
</g>
<g>
</g>
<g>
</g>
<g>
</g>
<g>
</g>
<g>
</g>
<g>
</g>
<g>
</g>
<g>
</g>
<g>
</g>
<g>
</g>
<g>
</g>
<g>
</g>
<g>
</g>
<g>
</g>
<g>
</g>
</svg>
