<?xml version="1.0" encoding="utf-8"?>
<!-- Generator: Adobe Illustrator 19.2.1, SVG Export Plug-In . SVG Version: 6.00 Build 0)  -->
<svg version="1.1" id="Layer_1" xmlns="http://www.w3.org/2000/svg" xmlns:xlink="http://www.w3.org/1999/xlink" x="0px" y="0px"
	 viewBox="0 0 267.6 186" style="enable-background:new 0 0 267.6 186;" xml:space="preserve">
<style type="text/css">
	.st0{fill:#FFFFFF;}
</style>
<g>
	<g>
		<path class="st0" d="M46.3,98.8l43-2.8l-0.9,27H19.3l-1.8-23.1l46.4-61.4l-45.1,4.9l-0.9-28.5h71l-0.1,22.8L46.3,98.8z"/>
		<path class="st0" d="M150.3,127.5l-4.4-20.8h-29.1l-5,17.2l-20-4l35.4-104.8l13.7,2.2L172,122.5L150.3,127.5z M123.1,86.4
			l17.7-0.7l-7.6-31.1L123.1,86.4z"/>
		<path class="st0" d="M219.5,123.5l-20.7-32.8l-0.1,0.1v35.6l-18.9-2l-4.1-108.5l23-1v39.2l22.2-33.9l17.2,5.5l-25,45.2l25.9,47.8
			L219.5,123.5z"/>
	</g>
	<g>
		<path class="st0" d="M224.9,69.2l3-14.6l7.3,2.3l-5.8,14L224.9,69.2z"/>
		<path class="st0" d="M250.5,76.8c10.2,3.8,12.9,11.3,8,22.5c-0.6,1.5-1.9,2.5-3.8,3c-1.9,0.6-4.4,0.8-7.6,0.8
			c-4.3-0.2-6.9-0.9-7.7-2.2c-1.8-2.8-2.6-5.6-2.5-8.5s0.7-5.3,1.7-7.4l6.9,0.9c-1.5,2.5-1.7,4.7-0.6,6.6c0.5,0.9,1.6,1.3,3.4,1.3
			c2,0,3.2-0.2,3.8-0.5c0.9-0.4,1.4-1,1.5-1.8c0.5-3.1-0.8-5.1-3.9-6.3c-8.5-3.9-12.8-8.3-13-13.1c-0.1-5.8,0.7-9.2,2.2-10.2
			c2.7-2,6.6-3.3,11.5-3.7c5.1,0,8.1,2,9.1,5.9c0.5,2.4,0.6,6,0.1,10.6l-6.5,0.3c0-1.4-0.1-2.7-0.3-3.7c-0.3-2.3-1.5-3.6-3.5-3.9
			c-2.7,0-4.3,1.2-4.8,3.4C244,72.7,246,74.7,250.5,76.8z"/>
	</g>
	<g>
		<path class="st0" d="M12.7,174l12.1-39.9l4.8,0.6l13,38.4l-7.4,1.5l-1.9-6.4H22.5l-1.6,7.7L12.7,174z M27.2,148.7l-2.8,11.6
			l6.6,0.3L27.2,148.7z"/>
		<path class="st0" d="M44.7,174.6l-0.4-40.3l10,0.1c7.5,0.1,11.3,3.5,11.3,10.2c-0.5,12.1-1.2,19.7-2.3,22.8
			C62.2,171.2,56,173.6,44.7,174.6z M52.5,143.4l0,22.1l3.6-1.2c1.4-0.2,2.3-5.5,2.7-16c0.2-2.2-0.1-3.6-1.1-4.1
			C56.5,143.4,54.8,143.2,52.5,143.4z"/>
		<path class="st0" d="M76.6,133.9l5.4,28.7l5.9-30.2l9.8,1.7L85.4,174l-7.5,0.9l-10.3-39.2L76.6,133.9z"/>
		<path class="st0" d="M99.9,173.6l-1.1-38l21.4,0.9l-0.5,7.2l-12.9,0.6v4.4l9.4,0.6v7.3l-9.4,0.3v8h12.8l-0.2,7.3L99.9,173.6z"/>
		<path class="st0" d="M129.5,133.1l9.9,22.7l-0.5-20.3l9.1-0.5l-1.4,40.7h-6.4l-9.8-22.5l-0.3,20l-6.6,0.4l-1.5-39.1L129.5,133.1z"
			/>
		<path class="st0" d="M158.4,174.5l-0.4-31.3h-8l-0.1-7.9l24.3-1.4l-0.3,9.3h-7.4l-0.5,30.3L158.4,174.5z"/>
		<path class="st0" d="M198.8,167.6c-0.2,3.9-2.5,6.4-7,7.5c-2.7,0.6-6.5,0.2-11.4-1c-2.4-0.6-3.9-2.6-4.4-6.1
			c-0.8-6.5-0.6-17.6,0.7-33.2l7.9,0.6c-1.2,14.1-1.6,23.4-1.1,27.9c0.2,2,0.9,3.2,1.9,3.7c1,0.4,2,0.5,2.9,0.2
			c1.4-0.3,2.3-1.3,2.6-3.1c0.8-5,0.4-13.8-1.2-26.4l7.8-1.1C198.9,148.3,199.3,158.7,198.8,167.6z"/>
		<path class="st0" d="M209.6,160.8v14.4l-7.3-0.6l-1.4-40.7c14.5-1.3,21.8,0.4,22.1,5.3c0.2,7-0.3,12-1.4,15
			c-0.6,2.3-1.9,3.7-4.1,4.2l-0.5,0.1l7.2,12.8l-4.7,4.7L209.6,160.8z M209.6,141.6v11.1c4.2-0.3,6.4-2.4,6.6-6.1
			c0.3-2.2-0.1-3.5-1.2-4C213.9,141.9,212.1,141.5,209.6,141.6z"/>
		<path class="st0" d="M226.6,173.6l-1.1-38l21.4,0.9l-0.5,7.2l-12.9,0.6v4.4l9.4,0.6v7.3l-9.4,0.3v8h12.8l-0.2,7.3L226.6,173.6z"/>
	</g>
</g>
</svg>
